<svg id="圖層_1" data-name="圖層 1" xmlns="http://www.w3.org/2000/svg" viewBox="0 0 425.2 45.4">
  <defs>
    <style>
      .cls-1 {
        fill: #50738c;
      }

      .cls-2 {
        fill: #ffa400;
      }

      .cls-3 {
        fill: orange;
      }

      .cls-4 {
        fill: #69b4e6;
      }
    </style>
  </defs>
  <title>DOIT Branding and Design Guidelines 201605</title>
  <g>
    <g>
      <path d="M39.2,28.8l3.3.4a8.2,8.2,0,0,1-2.9,4.5,8.8,8.8,0,0,1-5.5,1.6,8.7,8.7,0,0,1-6.6-2.6q-2.5-2.6-2.5-7.2t2.5-7.5A8.4,8.4,0,0,1,34,15.4,8.2,8.2,0,0,1,40.3,18q2.4,2.6,2.4,7.3,0,.3,0,.9H28.4A7.3,7.3,0,0,0,30.2,31a5.3,5.3,0,0,0,4,1.7,5,5,0,0,0,3-.9A6.2,6.2,0,0,0,39.2,28.8ZM28.6,23.5H39.3a6.5,6.5,0,0,0-1.2-3.6,5,5,0,0,0-4-1.9,5.1,5.1,0,0,0-3.7,1.5A5.9,5.9,0,0,0,28.6,23.5Z"/>
      <path d="M45.4,29.2l3.2-.5a4.5,4.5,0,0,0,1.5,2.9,5.2,5.2,0,0,0,3.4,1,5.1,5.1,0,0,0,3.3-.9,2.7,2.7,0,0,0,1.1-2.1,2,2,0,0,0-1-1.7,14,14,0,0,0-3.3-1.1,30.2,30.2,0,0,1-4.9-1.6,4.7,4.7,0,0,1-2.8-4.4,4.9,4.9,0,0,1,.6-2.4,5.2,5.2,0,0,1,1.6-1.8,6.7,6.7,0,0,1,2.1-.9,9.8,9.8,0,0,1,2.8-.4,11,11,0,0,1,3.9.6,5.4,5.4,0,0,1,2.5,1.8,6.9,6.9,0,0,1,1.1,3l-3.2.4a3.5,3.5,0,0,0-1.2-2.3,4.6,4.6,0,0,0-2.9-.8,5.3,5.3,0,0,0-3.2.7,2.1,2.1,0,0,0-1,1.7,1.8,1.8,0,0,0,.4,1.1,2.8,2.8,0,0,0,1.2.9l2.9.8a39.9,39.9,0,0,1,4.8,1.5,4.8,4.8,0,0,1,2.1,1.7,4.7,4.7,0,0,1,.8,2.8,5.4,5.4,0,0,1-.9,3,6.1,6.1,0,0,1-2.7,2.2,9.9,9.9,0,0,1-4,.8,9,9,0,0,1-5.7-1.5A7.2,7.2,0,0,1,45.4,29.2Z"/>
      <path d="M65.1,12.3V8.6h3.2v3.7Zm0,22.6V15.8h3.2V34.9Z"/>
      <path d="M72.6,36.5l3.1.5a3,3,0,0,0,1.1,2.1,5.4,5.4,0,0,0,3.3.9,5.8,5.8,0,0,0,3.5-.9,4.4,4.4,0,0,0,1.7-2.5,20.7,20.7,0,0,0,.2-4.2,6.7,6.7,0,0,1-5.3,2.5,7.2,7.2,0,0,1-6.1-2.8A10.9,10.9,0,0,1,72,25.3a12.7,12.7,0,0,1,1-5,7.9,7.9,0,0,1,2.9-3.6,7.7,7.7,0,0,1,4.4-1.3,6.8,6.8,0,0,1,5.6,2.7V15.8h3V32.3q0,4.5-.9,6.3A6.6,6.6,0,0,1,85,41.6a10,10,0,0,1-4.8,1.1,9.1,9.1,0,0,1-5.5-1.5A5.2,5.2,0,0,1,72.6,36.5ZM75.3,25q0,3.8,1.5,5.5a4.9,4.9,0,0,0,7.5,0q1.5-1.7,1.5-5.4a7.8,7.8,0,0,0-1.6-5.3,4.8,4.8,0,0,0-3.7-1.8,4.7,4.7,0,0,0-3.7,1.8A7.8,7.8,0,0,0,75.3,25Z"/>
      <path d="M93.7,34.9V15.8h2.9v2.7a6.9,6.9,0,0,1,6.1-3.1,8,8,0,0,1,3.2.6,5,5,0,0,1,2.2,1.6,6.2,6.2,0,0,1,1,2.4,18.6,18.6,0,0,1,.2,3.1V34.9H106V23.3a8.7,8.7,0,0,0-.4-3,3.1,3.1,0,0,0-1.3-1.6,4.3,4.3,0,0,0-2.3-.6,5.2,5.2,0,0,0-3.6,1.3q-1.5,1.3-1.5,5V34.9Z"/>
      <path d="M127.3,28.8l3.3.4a8.2,8.2,0,0,1-2.9,4.5,9.9,9.9,0,0,1-12.1-1q-2.5-2.6-2.5-7.2t2.5-7.5a8.4,8.4,0,0,1,6.4-2.7,8.2,8.2,0,0,1,6.3,2.6q2.4,2.6,2.4,7.3,0,.3,0,.9H116.5a7.3,7.3,0,0,0,1.8,4.8,5.3,5.3,0,0,0,4,1.7,5,5,0,0,0,3-.9A6.2,6.2,0,0,0,127.3,28.8Zm-10.6-5.2h10.7a6.5,6.5,0,0,0-1.2-3.6,5,5,0,0,0-4-1.9,5.1,5.1,0,0,0-3.7,1.5A5.9,5.9,0,0,0,116.6,23.5Z"/>
      <path d="M147,34.9V32.5a5.9,5.9,0,0,1-5.3,2.8,7.5,7.5,0,0,1-4.2-1.3,8.3,8.3,0,0,1-3-3.5,12.1,12.1,0,0,1-1.1-5.2,13.6,13.6,0,0,1,1-5.2,7.5,7.5,0,0,1,2.9-3.6,7.6,7.6,0,0,1,4.3-1.2,6.4,6.4,0,0,1,5.3,2.6V8.6H150V34.9Zm-10.2-9.5q0,3.7,1.5,5.5a4.7,4.7,0,0,0,3.6,1.8,4.6,4.6,0,0,0,3.6-1.7,8,8,0,0,0,1.5-5.3q0-3.9-1.5-5.8a4.6,4.6,0,0,0-3.7-1.8,4.5,4.5,0,0,0-3.6,1.8Q136.8,21.6,136.8,25.4Z"/>
      <path d="M168.3,34.9h-3V8.6h3.2V18a6.4,6.4,0,0,1,5.2-2.6,8,8,0,0,1,3.3.7,6.8,6.8,0,0,1,2.6,2,9.7,9.7,0,0,1,1.6,3.1,12.8,12.8,0,0,1,.6,3.9q0,4.9-2.4,7.6a7.6,7.6,0,0,1-5.8,2.7,6.1,6.1,0,0,1-5.3-2.8Zm0-9.7a9.9,9.9,0,0,0,.9,5,4.6,4.6,0,0,0,7.8.7,8.4,8.4,0,0,0,1.5-5.5q0-3.7-1.5-5.5a4.5,4.5,0,0,0-3.6-1.8,4.7,4.7,0,0,0-3.7,1.8A8.1,8.1,0,0,0,168.3,25.2Z"/>
      <path d="M185.7,42.3l-.4-3,1.9.3a3.5,3.5,0,0,0,1.7-.4,2.9,2.9,0,0,0,1.1-1,15.9,15.9,0,0,0,1-2.4l.3-.8L184,15.8h3.5l4,11.1q.8,2.1,1.4,4.4a43.5,43.5,0,0,1,1.3-4.4l4.1-11.1h3.2l-7.3,19.4a38.2,38.2,0,0,1-1.8,4.3,6.4,6.4,0,0,1-2,2.3,4.7,4.7,0,0,1-2.7.7A6.5,6.5,0,0,1,185.7,42.3Z"/>
      <path d="M0,34.9V8.6H9.1a22,22,0,0,1,4.7.4,8.9,8.9,0,0,1,3.9,1.9,10.7,10.7,0,0,1,3.1,4.5,17.7,17.7,0,0,1,1,6.3,18.4,18.4,0,0,1-.7,5.3,12.9,12.9,0,0,1-1.8,3.8,9.6,9.6,0,0,1-2.4,2.4,9.8,9.8,0,0,1-3.1,1.3,18,18,0,0,1-4.2.4Zm3.5-3.1H9.1a13.7,13.7,0,0,0,4.1-.5A5.9,5.9,0,0,0,15.6,30a8.3,8.3,0,0,0,1.9-3.3,16.3,16.3,0,0,0,.7-5.1,12.3,12.3,0,0,0-1.4-6.4,6.8,6.8,0,0,0-3.3-3A13.6,13.6,0,0,0,9,11.7H3.5Z"/>
    </g>
    <g>
      <g>
        <path class="cls-1" d="M292.4,41.4l8.1-38.9h16.1a16.2,16.2,0,0,1,4.3,1,11.9,11.9,0,0,1,3.4,2.1,13.1,13.1,0,0,1,2.7,3.2,15.9,15.9,0,0,1,1.7,4.3,22.3,22.3,0,0,1,.6,5.4A24.9,24.9,0,0,1,327,29.8a22.1,22.1,0,0,1-6,7.7,18.2,18.2,0,0,1-7.2,3.3,36.6,36.6,0,0,1-7.7.6Zm9.3-6.3h4.1a26.6,26.6,0,0,0,6.4-.5,8.9,8.9,0,0,0,3.6-2,17.2,17.2,0,0,0,4-5.7,20.3,20.3,0,0,0,1.6-8.4,11.6,11.6,0,0,0-1.3-6.2,6.5,6.5,0,0,0-3.3-2.8,17.1,17.1,0,0,0-4.9-.5h-4.6Z"/>
        <path class="cls-1" d="M334.1,26.1a27.8,27.8,0,0,1,1-7.3,26.1,26.1,0,0,1,4.1-8.9,20,20,0,0,1,7-6,20.5,20.5,0,0,1,9.6-2.2q7.2,0,11.7,4.5t4.4,11.9A26.2,26.2,0,0,1,369,30.1a21.6,21.6,0,0,1-7.9,8.9,20.7,20.7,0,0,1-11.2,3.1,16.1,16.1,0,0,1-9.1-2.5,13.8,13.8,0,0,1-5.2-6.1A18.8,18.8,0,0,1,334.1,26.1ZM342,26a9.6,9.6,0,0,0,2.4,6.7,8.2,8.2,0,0,0,6.4,2.7,10.5,10.5,0,0,0,6.2-2.1,15.6,15.6,0,0,0,4.9-6.5,20.5,20.5,0,0,0,2-8.5,10.1,10.1,0,0,0-2.5-7.2,8.3,8.3,0,0,0-6.3-2.6q-5.9,0-9.5,5.5A21,21,0,0,0,342,26Z"/>
        <path class="cls-1" d="M373.5,41.4l8.1-38.9h8l-8.1,38.9Z"/>
        <path class="cls-1" d="M405.8,41.4h-8L404.6,9H393.2l1.4-6.5h30.6L423.8,9H412.6Z"/>
      </g>
      <g>
        <path class="cls-2" d="M251.5,28.9h0Z"/>
        <g>
          <g>
            <polygon class="cls-3" points="251.5 15.3 251.5 15.4 253.7 15.4 253.7 13.8 253.7 13.1 251.5 13.1 251.5 15.3"/>
            <rect class="cls-3" x="253.7" y="15.3" width="2.3" height="2.26"/>
            <path class="cls-3" d="M253.5,10.8a15.9,15.9,0,0,0-1-2.3l-.2-.3-1-1.5-.2-.3Q246.5,0,237.8,0h-9.8a8,8,0,0,0-7.4,6l-.3,1.3-.2.9v.3l-3.8,18.1-1.9,8.7h0l-.2,1v.4h0a5.6,5.6,0,0,0,5.7,7h8.8a22.4,22.4,0,0,0,9.5-2.1l2.3-1.2.7-.4,1.5-1-1.5-1.5a12.5,12.5,0,0,1-2.5-4.4l-.2.2-.2.2a15,15,0,0,1-4.4,1.9,14.1,14.1,0,0,1-3.3.4h-5.3a2.4,2.4,0,0,1-2.4-3l.9-4.3.4-1.9L227.1,11a4,4,0,0,1,2.4-2.8l1.3-.3h5.2l2.6.3,1.2.3h.3a9.4,9.4,0,0,1,2.3,1.2l1.1.9,1.1,1.2v.2l.2.4.3.5a10.5,10.5,0,0,1,1,2.3h3V13.1H247V10.8h2.3v2.3h2.3V10.8Z"/>
          </g>
          <g>
            <path class="cls-3" d="M247,26.7h-2.3v2.3h-.5a21,21,0,0,0,.3,2.7v.2a6.4,6.4,0,0,0,1,2,7.6,7.6,0,0,0,1.4,1.5h0l1.5-1.7.7-.9V28.9H247Z"/>
            <rect class="cls-3" x="249.2" y="19.9" width="2.3" height="2.26"/>
            <polygon class="cls-3" points="249.2 24.4 247 24.4 247 26.6 249.2 26.6 249.2 28.9 251.5 28.9 251.5 26.6 249.2 26.6 249.2 24.4"/>
            <polygon class="cls-3" points="251.5 24.4 251.5 26.6 251.5 26.6 253.7 26.6 253.7 24.4 252.5 24.4 251.5 24.4"/>
            <rect class="cls-3" x="256" y="22.1" width="2.3" height="2.26"/>
          </g>
        </g>
        <g>
          <rect class="cls-4" x="247" y="10.8" width="2.3" height="2.26"/>
          <path class="cls-4" d="M286.9,11.9a15.6,15.6,0,0,0-.9-2.6c-6.1-14.1-24.3-9.7-34.7-2.5l1,1.5.2.3a15.9,15.9,0,0,1,1,2.3h-2v2.3h2.3v.7A29,29,0,0,1,265.3,10a22.1,22.1,0,0,1,11.6,2,10.4,10.4,0,0,1,4.2,3.7c.2.3.7,1.3,1.1,1.3s2,.3,0-2.6,1-1.7,1.8.4a11.2,11.2,0,0,1,1.1,4.4c0,1.3,1.3,2,1.6.6C287.2,16.9,287.5,14.6,286.9,11.9Z"/>
          <path class="cls-4" d="M277.6,17.9c-.8-.8-2-2.3-2.3-1.4s-.2,1.1.5,2.9-.2,3.1-.8,1.8-1.2-.3-.9,1.1a10.8,10.8,0,0,1-1.1,7.8,15.5,15.5,0,0,1-5.8,4.9,22.2,22.2,0,0,1-12.6,2.9,15,15,0,0,1-7.7-2.7,7.6,7.6,0,0,1-1.4-1.5,6.4,6.4,0,0,1-1-2v-.2a21,21,0,0,1-.3-2.7,13.5,13.5,0,0,1,1.5-7,19.6,19.6,0,0,1,5.8-6.6V13.1h-2.3v2.3h-3a10.5,10.5,0,0,0-1-2.3l-.3-.5a34.2,34.2,0,0,0-5.7,9.3c-1.5,3.8-2,7.7-.9,11.3a12.5,12.5,0,0,0,2.5,4.4l1.5,1.5a19.8,19.8,0,0,0,11.4,4.6,29.9,29.9,0,0,0,17.6-3.9c4.6-2.8,8.4-7,9.2-12.6a11.4,11.4,0,0,0,.1-1.8A10.7,10.7,0,0,0,277.6,17.9Z"/>
        </g>
      </g>
    </g>
  </g>
</svg>
