<svg id="圖層_1" data-name="圖層 1" xmlns="http://www.w3.org/2000/svg" viewBox="0 0 28 28">
  <defs>
    <style>
      .cls-1 {
        fill: #b3b3b3;
      }

      .cls-2 {
        fill: #fff;
      }

      .cls-3 {
        fill: none;
      }
    </style>
  </defs>
  <title>data_icons</title>
  <rect class="cls-1" x="1" y="1" width="26" height="26"/>
  <path class="cls-2" d="M7.5,22.2H5.8A8.7,8.7,0,0,0,1,27H27a8.7,8.7,0,0,0-4.8-4.8H20.5A3.3,3.3,0,0,1,17.3,19h0v-1a8.3,8.3,0,0,0,1.6-3c0-.2.2-.3.3-.4a2,2,0,0,0,.3-2.4c0-.1-.2-.2-.2-.4V9a4.8,4.8,0,0,0-1.2-3.2,4.6,4.6,0,0,0-2.5-1.4,8.2,8.2,0,0,0-3.6.1A4.2,4.2,0,0,0,9.5,6.2a4.9,4.9,0,0,0-.8,2.6v2.9c0,.2-.1.3-.2.5A2,2,0,0,0,9,14.7a1,1,0,0,1,.3.6,7.9,7.9,0,0,0,1.4,2.6V19A3.3,3.3,0,0,1,7.5,22.2Z"/>
  <rect class="cls-3" width="28" height="28"/>
</svg>
